# xmcd
#
# Track frame offsets: 
#        150
#        14845
#        28830
#        42674
#        66551
#        86407
#        105117
#        120987
#        147865
#        164557
#        186385
#        207786
#        222038
#        232301
#        245157
#        261187
#
# Disc length: 3726 seconds
#
# Revision: 0
# Processed by: cddbd v1.5.1PL0 Copyright (c) Steve Scherf et al.
# Submitted via: ExactAudioCopy v0.95a5
#
DISCID=f30e8c10
DTITLE=Furry Lewis - Heroes Of The Blues - The Very Best Of Furry Lewi
DTITLE=s
DYEAR=2003
DGENRE=blues
TTITLE0=Furry's Blues
TTITLE1=Cannonball Blues
TTITLE2=Judge Harsh Blues
TTITLE3=Judge Boushe'
TTITLE4=Natural Born Eastman
TTITLE5=If You Follow Me Babe
TTITLE6=Take Your Time
TTITLE7=Why Don't You Come Home Blues
TTITLE8=When I Lay My Burden Down
TTITLE9=St. Louis Blues
TTITLE10=John Henry
TTITLE11=Long Tall Gal Blues
TTITLE12=Baby That's All Right
TTITLE13=Shake 'Em On Down
TTITLE14=I'm Going To Brownsville
TTITLE15=Baby You Don't Want Me
EXTD=
EXTT0=
EXTT1=
EXTT2=
EXTT3=
EXTT4=
EXTT5=
EXTT6=
EXTT7=
EXTT8=
EXTT9=
EXTT10=
EXTT11=
EXTT12=
EXTT13=
EXTT14=
EXTT15=
PLAYORDER=
